<svg xmlns="http://www.w3.org/2000/svg" width="1100" height="760" viewBox="0 0 1100 760" role="img" aria-labelledby="title desc">
  <title id="title">Responsible AI hiring controls</title>
  <desc id="desc">A visual showing explainable AI scores, human review, privacy controls, and fair hiring safeguards.</desc>
  <defs>
    <linearGradient id="background" x1="0" x2="1" y1="0" y2="1">
      <stop offset="0" stop-color="#ffffff"/>
      <stop offset="1" stop-color="#edf4ee"/>
    </linearGradient>
    <filter id="shadow" x="-18%" y="-18%" width="136%" height="136%">
      <feDropShadow dx="0" dy="22" stdDeviation="24" flood-color="#172033" flood-opacity="0.14"/>
    </filter>
  </defs>
  <rect width="1100" height="760" rx="24" fill="url(#background)"/>
  <circle cx="552" cy="372" r="216" fill="#d9e7dc"/>
  <path d="M552 150l176 70v136c0 138-76 232-176 282-100-50-176-144-176-282V220z" fill="#0b514e" filter="url(#shadow)"/>
  <path d="M552 202l124 50v102c0 94-46 160-124 205-78-45-124-111-124-205V252z" fill="#ffffff" opacity="0.96"/>
  <path d="M492 375l43 43 90-118" fill="none" stroke="#0f766e" stroke-width="24" stroke-linecap="round" stroke-linejoin="round"/>
  <rect x="94" y="138" width="256" height="144" rx="18" fill="#ffffff" stroke="#dce2e7" stroke-width="2" filter="url(#shadow)"/>
  <rect x="126" y="176" width="128" height="16" rx="8" fill="#172033"/>
  <rect x="126" y="216" width="176" height="12" rx="6" fill="#8b98a5"/>
  <rect x="126" y="246" width="124" height="12" rx="6" fill="#dce2e7"/>
  <circle cx="308" cy="210" r="28" fill="#d4a017"/>
  <rect x="750" y="140" width="256" height="144" rx="18" fill="#ffffff" stroke="#dce2e7" stroke-width="2" filter="url(#shadow)"/>
  <rect x="782" y="178" width="142" height="16" rx="8" fill="#172033"/>
  <rect x="782" y="218" width="176" height="12" rx="6" fill="#8b98a5"/>
  <rect x="782" y="248" width="138" height="12" rx="6" fill="#dce2e7"/>
  <circle cx="956" cy="211" r="28" fill="#0f766e"/>
  <rect x="94" y="478" width="256" height="144" rx="18" fill="#ffffff" stroke="#dce2e7" stroke-width="2" filter="url(#shadow)"/>
  <rect x="126" y="516" width="122" height="16" rx="8" fill="#172033"/>
  <rect x="126" y="556" width="176" height="12" rx="6" fill="#8b98a5"/>
  <rect x="126" y="586" width="100" height="12" rx="6" fill="#dce2e7"/>
  <circle cx="308" cy="550" r="28" fill="#c95f45"/>
  <rect x="750" y="478" width="256" height="144" rx="18" fill="#ffffff" stroke="#dce2e7" stroke-width="2" filter="url(#shadow)"/>
  <rect x="782" y="516" width="128" height="16" rx="8" fill="#172033"/>
  <rect x="782" y="556" width="176" height="12" rx="6" fill="#8b98a5"/>
  <rect x="782" y="586" width="132" height="12" rx="6" fill="#dce2e7"/>
  <circle cx="956" cy="550" r="28" fill="#d4a017"/>
  <path d="M350 238c60 18 104 45 132 82" fill="none" stroke="#0f766e" stroke-width="8" stroke-linecap="round" opacity="0.35"/>
  <path d="M750 238c-60 18-104 45-132 82" fill="none" stroke="#0f766e" stroke-width="8" stroke-linecap="round" opacity="0.35"/>
  <path d="M350 550c64-16 110-44 140-84" fill="none" stroke="#0f766e" stroke-width="8" stroke-linecap="round" opacity="0.35"/>
  <path d="M750 550c-64-16-110-44-140-84" fill="none" stroke="#0f766e" stroke-width="8" stroke-linecap="round" opacity="0.35"/>
</svg>
