<svg xmlns="http://www.w3.org/2000/svg" width="1400" height="900" viewBox="0 0 1400 900" role="img" aria-labelledby="title desc">
  <title id="title">Getjobz product dashboard</title>
  <desc id="desc">A recruiter dashboard with job requirements, candidate rankings, skill coverage, and shortlist actions.</desc>
  <defs>
    <linearGradient id="bg" x1="0" x2="1" y1="0" y2="1">
      <stop offset="0" stop-color="#f8faf6"/>
      <stop offset="1" stop-color="#e3ece7"/>
    </linearGradient>
    <linearGradient id="nav" x1="0" x2="0" y1="0" y2="1">
      <stop offset="0" stop-color="#172033"/>
      <stop offset="1" stop-color="#0b514e"/>
    </linearGradient>
    <filter id="shadow" x="-16%" y="-16%" width="132%" height="132%">
      <feDropShadow dx="0" dy="24" stdDeviation="28" flood-color="#172033" flood-opacity="0.15"/>
    </filter>
  </defs>
  <rect width="1400" height="900" rx="28" fill="url(#bg)"/>
  <rect x="70" y="70" width="1260" height="760" rx="24" fill="#ffffff" filter="url(#shadow)"/>
  <rect x="70" y="70" width="250" height="760" rx="24" fill="url(#nav)"/>
  <rect x="70" y="770" width="250" height="60" fill="#0b514e"/>
  <rect x="112" y="118" width="54" height="54" rx="12" fill="#ffffff"/>
  <text x="125" y="151" font-family="Arial, sans-serif" font-size="22" font-weight="700" fill="#0b514e">GJ</text>
  <text x="182" y="150" font-family="Arial, sans-serif" font-size="28" font-weight="700" fill="#ffffff">Getjobz</text>
  <rect x="112" y="226" width="156" height="42" rx="10" fill="#ffffff" opacity="0.16"/>
  <rect x="112" y="296" width="116" height="14" rx="7" fill="#ffffff" opacity="0.55"/>
  <rect x="112" y="338" width="148" height="14" rx="7" fill="#ffffff" opacity="0.55"/>
  <rect x="112" y="380" width="128" height="14" rx="7" fill="#ffffff" opacity="0.55"/>
  <rect x="112" y="422" width="100" height="14" rx="7" fill="#ffffff" opacity="0.55"/>
  <rect x="112" y="710" width="156" height="48" rx="12" fill="#d4a017"/>
  <rect x="360" y="118" width="280" height="22" rx="11" fill="#172033"/>
  <rect x="360" y="158" width="452" height="14" rx="7" fill="#8b98a5"/>
  <rect x="1050" y="116" width="210" height="46" rx="12" fill="#0f766e"/>
  <rect x="360" y="222" width="370" height="210" rx="18" fill="#f8faf6" stroke="#dce2e7" stroke-width="2"/>
  <text x="390" y="270" font-family="Arial, sans-serif" font-size="28" font-weight="700" fill="#172033">Role Scorecard</text>
  <rect x="390" y="304" width="104" height="34" rx="17" fill="#e6f3ef"/>
  <rect x="510" y="304" width="92" height="34" rx="17" fill="#e6f3ef"/>
  <rect x="618" y="304" width="74" height="34" rx="17" fill="#f8e7df"/>
  <rect x="390" y="368" width="280" height="12" rx="6" fill="#b8c5cc"/>
  <rect x="390" y="396" width="220" height="12" rx="6" fill="#dce2e7"/>
  <rect x="770" y="222" width="490" height="210" rx="18" fill="#172033"/>
  <text x="804" y="270" font-family="Arial, sans-serif" font-size="28" font-weight="700" fill="#ffffff">Skill Coverage</text>
  <rect x="812" y="330" width="70" height="58" rx="10" fill="#23a56f"/>
  <rect x="908" y="300" width="70" height="88" rx="10" fill="#d4a017"/>
  <rect x="1004" y="346" width="70" height="42" rx="10" fill="#c95f45"/>
  <rect x="1100" y="284" width="70" height="104" rx="10" fill="#d9e7dc"/>
  <rect x="804" y="404" width="360" height="10" rx="5" fill="#ffffff" opacity="0.26"/>
  <rect x="360" y="478" width="900" height="274" rx="18" fill="#ffffff" stroke="#dce2e7" stroke-width="2"/>
  <text x="390" y="528" font-family="Arial, sans-serif" font-size="28" font-weight="700" fill="#172033">Candidate Ranking</text>
  <g>
    <rect x="390" y="560" width="820" height="48" rx="12" fill="#e6f3ef"/>
    <circle cx="422" cy="584" r="16" fill="#0f766e"/>
    <rect x="456" y="575" width="160" height="12" rx="6" fill="#172033"/>
    <rect x="648" y="575" width="240" height="12" rx="6" fill="#667482"/>
    <rect x="1042" y="570" width="70" height="24" rx="12" fill="#0f766e"/>
    <text x="1132" y="589" font-family="Arial, sans-serif" font-size="18" font-weight="700" fill="#0f766e">92</text>
  </g>
  <g>
    <rect x="390" y="626" width="820" height="48" rx="12" fill="#fbf7ea"/>
    <circle cx="422" cy="650" r="16" fill="#d4a017"/>
    <rect x="456" y="641" width="140" height="12" rx="6" fill="#172033"/>
    <rect x="648" y="641" width="220" height="12" rx="6" fill="#667482"/>
    <rect x="1042" y="636" width="70" height="24" rx="12" fill="#d4a017"/>
    <text x="1132" y="655" font-family="Arial, sans-serif" font-size="18" font-weight="700" fill="#7b570d">78</text>
  </g>
  <g>
    <rect x="390" y="692" width="820" height="48" rx="12" fill="#f8e7df"/>
    <circle cx="422" cy="716" r="16" fill="#c95f45"/>
    <rect x="456" y="707" width="128" height="12" rx="6" fill="#172033"/>
    <rect x="648" y="707" width="190" height="12" rx="6" fill="#667482"/>
    <rect x="1042" y="702" width="70" height="24" rx="12" fill="#c95f45"/>
    <text x="1132" y="721" font-family="Arial, sans-serif" font-size="18" font-weight="700" fill="#883f2d">61</text>
  </g>
</svg>
